<?xml version="1.0" encoding="UTF-8"?>
<svg xmlns="http://www.w3.org/2000/svg" xmlns:xlink="http://www.w3.org/1999/xlink" width="124px" height="124px" viewBox="0 0 124 124" version="1.1">
<g id="surface1">
<path style=" stroke:none;fill-rule:nonzero;fill:rgb(54.11765%,0%,100%);fill-opacity:1;" d="M 43.957031 8.144531 C 45.8125 9.128906 46.636719 11.289062 47.511719 13.074219 C 47.652344 13.355469 47.792969 13.636719 47.9375 13.925781 C 48.308594 14.671875 48.675781 15.417969 49.046875 16.164062 C 49.417969 16.917969 49.789062 17.667969 50.160156 18.417969 C 50.710938 19.523438 51.261719 20.632812 51.808594 21.742188 C 51.933594 21.992188 52.0625 22.242188 52.191406 22.5 C 52.554688 23.25 52.554688 23.25 52.863281 24.027344 C 53.777344 26.199219 55.039062 26.964844 57.128906 27.925781 C 57.4375 28.074219 57.742188 28.222656 58.046875 28.375 C 58.851562 28.765625 59.65625 29.148438 60.464844 29.527344 C 61.277344 29.910156 62.089844 30.304688 62.898438 30.695312 C 63.8125 31.140625 64.730469 31.582031 65.648438 32.019531 C 71.140625 34.625 71.140625 34.625 72.171875 36.570312 C 72.628906 37.976562 72.570312 39.472656 72.125 40.867188 C 71.265625 42.414062 70.464844 43.226562 68.863281 43.980469 C 68.699219 44.058594 68.535156 44.136719 68.367188 44.21875 C 67.78125 44.5 67.191406 44.773438 66.601562 45.046875 C 64.742188 45.914062 62.886719 46.785156 61.035156 47.671875 C 60.464844 47.941406 59.894531 48.207031 59.320312 48.46875 C 55.222656 50.183594 55.222656 50.183594 52.65625 53.574219 C 52.535156 53.921875 52.414062 54.273438 52.292969 54.625 C 51.832031 55.859375 51.195312 57.019531 50.597656 58.195312 C 50.335938 58.726562 50.070312 59.261719 49.808594 59.792969 C 49.675781 60.0625 49.539062 60.328125 49.402344 60.605469 C 49.132812 61.15625 48.859375 61.707031 48.585938 62.257812 C 48.191406 63.0625 47.789062 63.867188 47.390625 64.671875 C 47.269531 64.917969 47.148438 65.164062 47.027344 65.417969 C 46.15625 67.160156 45.300781 68.746094 43.460938 69.582031 C 41.953125 70.007812 40.34375 69.960938 38.871094 69.460938 C 37.472656 68.449219 36.71875 67.328125 35.960938 65.816406 C 35.855469 65.617188 35.753906 65.417969 35.648438 65.210938 C 35.308594 64.546875 34.96875 63.878906 34.632812 63.210938 C 34.386719 62.726562 34.140625 62.238281 33.894531 61.753906 C 33.246094 60.480469 32.605469 59.203125 31.964844 57.921875 C 31.566406 57.128906 31.167969 56.332031 30.769531 55.535156 C 30.515625 55.027344 30.261719 54.523438 30.007812 54.015625 C 29.886719 53.777344 29.765625 53.539062 29.644531 53.296875 C 29.535156 53.078125 29.425781 52.859375 29.316406 52.636719 C 29.21875 52.445312 29.125 52.25 29.023438 52.054688 C 28.820312 51.585938 28.820312 51.585938 28.820312 51.101562 C 28.613281 51.039062 28.410156 50.972656 28.195312 50.90625 C 27.335938 50.605469 26.539062 50.242188 25.714844 49.839844 C 25.558594 49.765625 25.402344 49.6875 25.238281 49.609375 C 24.726562 49.363281 24.214844 49.113281 23.703125 48.859375 C 23.347656 48.6875 22.992188 48.515625 22.636719 48.339844 C 21.90625 47.984375 21.179688 47.628906 20.453125 47.269531 C 19.589844 46.847656 18.726562 46.425781 17.863281 46.007812 C 17.242188 45.707031 16.621094 45.402344 16 45.097656 C 15.570312 44.886719 15.136719 44.675781 14.707031 44.46875 C 12.683594 43.464844 11.109375 42.429688 10.234375 40.234375 C 10.007812 38.316406 10.242188 36.902344 11.261719 35.261719 C 12.132812 34.359375 13.140625 33.886719 14.257812 33.332031 C 14.5 33.207031 14.742188 33.085938 14.988281 32.957031 C 15.804688 32.542969 16.621094 32.136719 17.4375 31.726562 C 17.898438 31.492188 18.359375 31.261719 18.820312 31.027344 C 19.609375 30.628906 20.402344 30.230469 21.191406 29.835938 C 21.339844 29.761719 21.488281 29.683594 21.640625 29.609375 C 23.320312 28.765625 25.007812 27.941406 26.707031 27.136719 C 26.941406 27.027344 26.941406 27.027344 27.179688 26.914062 C 28.277344 26.398438 28.277344 26.398438 28.820312 26.398438 C 28.886719 26.191406 28.949219 25.980469 29.015625 25.765625 C 29.304688 24.949219 29.644531 24.199219 30.03125 23.421875 C 30.136719 23.203125 30.136719 23.203125 30.246094 22.984375 C 30.480469 22.507812 30.714844 22.035156 30.953125 21.5625 C 31.117188 21.230469 31.28125 20.898438 31.445312 20.566406 C 31.789062 19.871094 32.136719 19.179688 32.480469 18.488281 C 32.925781 17.601562 33.363281 16.714844 33.800781 15.828125 C 34.140625 15.140625 34.480469 14.457031 34.824219 13.773438 C 34.984375 13.449219 35.148438 13.121094 35.308594 12.792969 C 35.535156 12.335938 35.765625 11.878906 35.992188 11.421875 C 36.1875 11.03125 36.1875 11.03125 36.386719 10.636719 C 38.003906 7.960938 41.003906 6.78125 43.957031 8.144531 Z M 41.171875 25.1875 C 41.0625 25.414062 40.949219 25.640625 40.835938 25.875 C 40.417969 26.722656 40 27.570312 39.582031 28.417969 C 39.402344 28.785156 39.222656 29.152344 39.042969 29.515625 C 38.785156 30.046875 38.523438 30.574219 38.261719 31.101562 C 38.183594 31.261719 38.105469 31.425781 38.023438 31.589844 C 37.09375 33.449219 36.035156 34.546875 34.167969 35.433594 C 33.984375 35.523438 33.804688 35.613281 33.617188 35.703125 C 33.042969 35.984375 32.46875 36.261719 31.894531 36.539062 C 31.5 36.730469 31.109375 36.921875 30.71875 37.117188 C 29.765625 37.582031 28.808594 38.046875 27.851562 38.507812 C 27.851562 38.667969 27.851562 38.828125 27.851562 38.992188 C 28.09375 39.105469 28.335938 39.222656 28.585938 39.339844 C 29.488281 39.769531 30.390625 40.207031 31.289062 40.644531 C 31.679688 40.832031 32.066406 41.019531 32.457031 41.203125 C 36.597656 43.164062 36.597656 43.164062 37.539062 45.046875 C 37.6875 45.320312 37.832031 45.597656 37.984375 45.878906 C 38.488281 46.84375 38.96875 47.820312 39.445312 48.800781 C 39.613281 49.140625 39.78125 49.484375 39.953125 49.824219 C 40.359375 50.652344 40.765625 51.480469 41.171875 52.3125 C 41.9375 51.667969 42.300781 50.851562 42.722656 49.96875 C 42.878906 49.644531 43.035156 49.320312 43.195312 49 C 43.441406 48.492188 43.683594 47.984375 43.925781 47.476562 C 44.164062 46.984375 44.402344 46.492188 44.644531 46.003906 C 44.714844 45.851562 44.785156 45.703125 44.859375 45.546875 C 45.527344 44.1875 46.386719 43.214844 47.738281 42.53125 C 47.925781 42.433594 48.109375 42.339844 48.300781 42.238281 C 48.496094 42.140625 48.691406 42.042969 48.890625 41.945312 C 49.300781 41.734375 49.710938 41.523438 50.121094 41.3125 C 50.324219 41.207031 50.527344 41.105469 50.738281 40.996094 C 51.648438 40.53125 52.546875 40.050781 53.449219 39.566406 C 53.746094 39.40625 54.046875 39.25 54.34375 39.089844 C 54.550781 38.976562 54.761719 38.863281 54.976562 38.75 C 54.222656 38.246094 53.445312 37.859375 52.632812 37.464844 C 52.308594 37.308594 51.984375 37.148438 51.664062 36.992188 C 51.15625 36.742188 50.648438 36.496094 50.140625 36.25 C 49.648438 36.011719 49.15625 35.769531 48.667969 35.527344 C 48.441406 35.421875 48.441406 35.421875 48.210938 35.3125 C 46.855469 34.636719 45.878906 33.777344 45.195312 32.425781 C 45.097656 32.238281 45.003906 32.054688 44.902344 31.863281 C 44.804688 31.667969 44.707031 31.472656 44.609375 31.273438 C 44.398438 30.863281 44.1875 30.453125 43.976562 30.042969 C 43.871094 29.839844 43.769531 29.636719 43.660156 29.425781 C 43.195312 28.515625 42.714844 27.617188 42.230469 26.714844 C 42.070312 26.417969 41.914062 26.117188 41.753906 25.820312 C 41.640625 25.613281 41.527344 25.402344 41.414062 25.1875 C 41.335938 25.1875 41.253906 25.1875 41.171875 25.1875 Z M 41.171875 25.1875 "/>
<path style=" stroke:none;fill-rule:nonzero;fill:rgb(21.176471%,0%,100%);fill-opacity:1;" d="M 59.316406 69.941406 C 61.1875 71.027344 61.953125 72.765625 62.667969 74.710938 C 64.671875 80.007812 66.574219 83.359375 71.863281 85.808594 C 73.300781 86.441406 74.746094 87.0625 76.222656 87.59375 C 77.953125 88.25 79.046875 89.21875 79.960938 90.835938 C 80.496094 92.074219 80.355469 93.773438 79.996094 95.046875 C 79.070312 97.070312 77.296875 97.871094 75.355469 98.722656 C 74.882812 98.941406 74.414062 99.160156 73.945312 99.378906 C 73.214844 99.714844 72.480469 100.050781 71.742188 100.371094 C 68.195312 101.925781 66.328125 103.34375 64.886719 106.980469 C 64.5625 107.78125 64.171875 108.539062 63.78125 109.308594 C 63.394531 110.097656 63.007812 110.890625 62.621094 111.6875 C 60.894531 115.203125 60.894531 115.203125 58.960938 116.082031 C 57.453125 116.507812 55.84375 116.460938 54.371094 115.960938 C 52.976562 114.953125 52.222656 113.835938 51.464844 112.328125 C 51.363281 112.136719 51.265625 111.941406 51.160156 111.738281 C 50.816406 111.066406 50.472656 110.386719 50.132812 109.710938 C 49.996094 109.4375 49.855469 109.167969 49.714844 108.886719 C 49.277344 108.027344 48.839844 107.167969 48.40625 106.304688 C 48.265625 106.027344 48.125 105.75 47.980469 105.460938 C 47.851562 105.203125 47.722656 104.945312 47.589844 104.675781 C 47.472656 104.445312 47.355469 104.214844 47.234375 103.972656 C 46.984375 103.414062 46.984375 103.414062 46.984375 102.929688 C 46.789062 102.871094 46.597656 102.8125 46.394531 102.753906 C 45.324219 102.371094 44.328125 101.886719 43.3125 101.382812 C 43.101562 101.277344 42.894531 101.171875 42.675781 101.066406 C 42.234375 100.847656 41.792969 100.625 41.347656 100.40625 C 40.675781 100.070312 40 99.738281 39.324219 99.40625 C 38.890625 99.191406 38.460938 98.976562 38.03125 98.761719 C 37.828125 98.664062 37.628906 98.566406 37.421875 98.464844 C 35.5625 97.527344 34.101562 96.246094 33.421875 94.210938 C 33.238281 92.539062 33.402344 91.007812 34.390625 89.609375 C 35.878906 88.089844 37.722656 87.269531 39.613281 86.355469 C 39.925781 86.199219 40.238281 86.046875 40.554688 85.894531 C 40.707031 85.816406 40.863281 85.742188 41.023438 85.664062 C 41.335938 85.507812 41.648438 85.351562 41.960938 85.195312 C 42.71875 84.8125 43.433594 84.496094 44.238281 84.226562 C 46.964844 83.222656 47.761719 81.316406 48.9375 78.789062 C 49.171875 78.273438 49.402344 77.757812 49.632812 77.242188 C 49.988281 76.472656 50.34375 75.703125 50.703125 74.9375 C 50.925781 74.464844 51.144531 73.988281 51.359375 73.507812 C 52.179688 71.730469 53.121094 70.726562 54.824219 69.78125 C 56.328125 69.3125 57.863281 69.273438 59.316406 69.941406 Z M 56.671875 86.945312 C 56.558594 87.191406 56.441406 87.4375 56.324219 87.6875 C 55.371094 89.648438 54.597656 91.0625 52.554688 92.03125 C 52.402344 92.113281 52.25 92.191406 52.09375 92.273438 C 51.769531 92.445312 51.433594 92.605469 51.101562 92.757812 C 51.101562 92.917969 51.101562 93.078125 51.101562 93.242188 C 51.316406 93.347656 51.527344 93.453125 51.746094 93.5625 C 54.472656 94.957031 55.480469 96.207031 56.671875 99.054688 C 57.183594 98.402344 57.59375 97.75 57.972656 97.011719 C 59.117188 94.960938 60.644531 94.210938 62.726562 93.242188 C 62.726562 93.082031 62.726562 92.921875 62.726562 92.757812 C 62.480469 92.644531 62.234375 92.535156 61.984375 92.417969 C 59.894531 91.417969 58.589844 90.605469 57.640625 88.398438 C 57.492188 88.105469 57.339844 87.8125 57.1875 87.519531 C 57.097656 87.332031 57.007812 87.140625 56.914062 86.945312 C 56.835938 86.945312 56.753906 86.945312 56.671875 86.945312 Z M 56.671875 86.945312 "/>
<path style=" stroke:none;fill-rule:nonzero;fill:rgb(78.431374%,0%,100%);fill-opacity:1;" d="M 94.050781 37.085938 C 96.296875 39.625 97.546875 43.285156 98.976562 46.3125 C 99.265625 46.917969 99.5625 47.511719 99.867188 48.105469 C 100.265625 48.921875 100.265625 48.921875 100.265625 49.40625 C 100.460938 49.464844 100.652344 49.523438 100.855469 49.582031 C 101.925781 49.964844 102.921875 50.453125 103.9375 50.964844 C 104.148438 51.066406 104.355469 51.171875 104.574219 51.28125 C 105.015625 51.5 105.457031 51.722656 105.902344 51.945312 C 106.574219 52.28125 107.25 52.617188 107.925781 52.949219 C 108.359375 53.167969 108.789062 53.382812 109.21875 53.597656 C 109.421875 53.695312 109.621094 53.796875 109.828125 53.898438 C 111.867188 54.925781 113.054688 55.933594 113.828125 58.125 C 114.136719 59.714844 113.765625 60.949219 113.070312 62.382812 C 111.871094 63.929688 110.066406 64.792969 108.335938 65.625 C 108.117188 65.730469 107.902344 65.835938 107.679688 65.941406 C 107.226562 66.164062 106.773438 66.382812 106.316406 66.601562 C 105.621094 66.9375 104.921875 67.277344 104.226562 67.613281 C 103.785156 67.828125 103.34375 68.042969 102.902344 68.257812 C 102.691406 68.359375 102.484375 68.460938 102.269531 68.5625 C 102.078125 68.65625 101.882812 68.75 101.6875 68.84375 C 101.515625 68.925781 101.347656 69.007812 101.171875 69.089844 C 100.75 69.265625 100.75 69.265625 100.265625 69.265625 C 100.222656 69.398438 100.183594 69.53125 100.140625 69.671875 C 99.714844 71.007812 99.191406 72.25 98.566406 73.503906 C 98.472656 73.691406 98.382812 73.878906 98.285156 74.070312 C 98.09375 74.460938 97.898438 74.851562 97.703125 75.242188 C 97.40625 75.832031 97.113281 76.429688 96.820312 77.023438 C 96.632812 77.402344 96.441406 77.785156 96.25 78.167969 C 96.164062 78.34375 96.078125 78.519531 95.992188 78.699219 C 95.023438 80.609375 93.972656 81.957031 91.914062 82.667969 C 90.402344 83.066406 89.140625 82.910156 87.742188 82.203125 C 85.933594 81.085938 85.042969 79.191406 84.207031 77.320312 C 83.886719 76.621094 83.5625 75.921875 83.226562 75.230469 C 82.917969 74.550781 82.65625 73.886719 82.398438 73.191406 C 81.117188 69.9375 79.46875 68.625 76.316406 67.195312 C 75.808594 66.976562 75.300781 66.757812 74.789062 66.539062 C 74.027344 66.199219 73.265625 65.855469 72.507812 65.507812 C 72.039062 65.292969 71.566406 65.082031 71.09375 64.882812 C 69.339844 64.101562 68.144531 63.066406 67.226562 61.363281 C 66.804688 59.660156 66.886719 57.941406 67.699219 56.386719 C 68.835938 54.972656 70.273438 54.324219 71.894531 53.613281 C 72.367188 53.394531 72.835938 53.175781 73.304688 52.957031 C 74.035156 52.621094 74.769531 52.285156 75.507812 51.964844 C 79.050781 50.414062 80.921875 48.996094 82.359375 45.367188 C 82.695312 44.527344 83.101562 43.730469 83.503906 42.921875 C 84.023438 41.851562 84.023438 41.851562 84.53125 40.777344 C 85.546875 38.628906 86.449219 37.101562 88.640625 36.085938 C 90.371094 35.578125 92.640625 35.914062 94.050781 37.085938 Z M 90.335938 53.523438 C 90.210938 53.757812 90.085938 53.992188 89.953125 54.230469 C 89.785156 54.539062 89.613281 54.847656 89.441406 55.15625 C 89.359375 55.3125 89.277344 55.464844 89.195312 55.625 C 88.355469 57.128906 87.296875 57.867188 85.78125 58.671875 C 85.542969 58.796875 85.308594 58.921875 85.0625 59.050781 C 84.886719 59.144531 84.707031 59.238281 84.523438 59.335938 C 85.21875 59.878906 85.933594 60.324219 86.703125 60.757812 C 88.59375 61.894531 89.332031 63.480469 90.335938 65.390625 C 90.914062 64.671875 91.292969 63.953125 91.683594 63.121094 C 92.476562 61.632812 93.441406 61.015625 94.9375 60.304688 C 95.09375 60.222656 95.253906 60.140625 95.417969 60.058594 C 95.738281 59.890625 96.0625 59.734375 96.390625 59.578125 C 95.800781 58.90625 95.179688 58.585938 94.378906 58.199219 C 92.355469 57.121094 91.519531 55.546875 90.578125 53.523438 C 90.5 53.523438 90.417969 53.523438 90.335938 53.523438 Z M 90.335938 53.523438 "/>
</g>
</svg>
