<?xml version="1.0" encoding="UTF-8"?>
<svg id="Layer_1" xmlns="http://www.w3.org/2000/svg" version="1.1" xmlns:xlink="http://www.w3.org/1999/xlink" viewBox="0 0 500 500">
  <!-- Generator: Adobe Illustrator 29.8.2, SVG Export Plug-In . SVG Version: 2.1.1 Build 3)  -->
  <defs>
    <style>
      .st0 {
        fill: url(#linear-gradient2);
      }

      .st1 {
        fill: url(#linear-gradient1);
      }

      .st2 {
        fill: none;
      }

      .st3 {
        fill: url(#linear-gradient7);
      }

      .st4 {
        fill: url(#linear-gradient4);
      }

      .st5 {
        fill: url(#linear-gradient5);
      }

      .st6 {
        fill: url(#linear-gradient3);
      }

      .st7 {
        fill: url(#linear-gradient6);
      }

      .st8 {
        fill: url(#linear-gradient);
      }
    </style>
    <linearGradient id="linear-gradient" x1="53.27" y1="322.87" x2="212.14" y2="322.87" gradientUnits="userSpaceOnUse">
      <stop offset="0" stop-color="#de9b26"/>
      <stop offset="0" stop-color="#e2a121"/>
      <stop offset=".04" stop-color="#eeb218"/>
      <stop offset=".08" stop-color="#f6be11"/>
      <stop offset=".13" stop-color="#fbc50d"/>
      <stop offset=".28" stop-color="#fdc70c"/>
      <stop offset=".34" stop-color="#fab71a"/>
      <stop offset=".46" stop-color="#f6a12e"/>
      <stop offset=".57" stop-color="#f3943a"/>
      <stop offset=".67" stop-color="#f3903f"/>
      <stop offset=".89" stop-color="#ed683c"/>
      <stop offset="1" stop-color="#e93e3a"/>
    </linearGradient>
    <linearGradient id="linear-gradient1" x1="103.71" y1="-14.3" x2="98.07" y2="347.22" gradientUnits="userSpaceOnUse">
      <stop offset="0" stop-color="#f78f24"/>
      <stop offset=".09" stop-color="#ee7e24"/>
      <stop offset=".22" stop-color="#e46c26"/>
      <stop offset=".37" stop-color="#de6026"/>
      <stop offset=".52" stop-color="#dd5d27"/>
      <stop offset=".89" stop-color="#c1272f"/>
      <stop offset="1" stop-color="#4e1316"/>
    </linearGradient>
    <linearGradient id="linear-gradient2" x1="421.88" y1="70.23" x2="290.17" y2="50.87" gradientUnits="userSpaceOnUse">
      <stop offset="0" stop-color="#cb382b"/>
      <stop offset=".2" stop-color="#c9322c"/>
      <stop offset=".51" stop-color="#dd5d27"/>
      <stop offset=".84" stop-color="#711d20"/>
      <stop offset="1" stop-color="#571619"/>
    </linearGradient>
    <linearGradient id="linear-gradient3" x1="470.99" y1="56.99" x2="296.75" y2="52.4" gradientUnits="userSpaceOnUse">
      <stop offset=".21" stop-color="#dd5d27"/>
      <stop offset=".8" stop-color="#c9322c"/>
      <stop offset="1" stop-color="#571619"/>
    </linearGradient>
    <linearGradient id="linear-gradient4" x1="351.91" y1="309.18" x2="349.49" y2="95.24" gradientUnits="userSpaceOnUse">
      <stop offset=".34" stop-color="#dd5d27"/>
      <stop offset=".56" stop-color="#c9322c"/>
      <stop offset="1" stop-color="#571619"/>
    </linearGradient>
    <linearGradient id="linear-gradient5" x1="308.7" y1="596.01" x2="319.24" y2="146.06" gradientUnits="userSpaceOnUse">
      <stop offset=".53" stop-color="#dd5d27"/>
      <stop offset=".74" stop-color="#c9322c"/>
      <stop offset=".86" stop-color="#c72e2c"/>
    </linearGradient>
    <linearGradient id="linear-gradient6" x1="107.1" y1="382.92" x2="310.6" y2="382.92" gradientUnits="userSpaceOnUse">
      <stop offset=".56" stop-color="#dd5d27"/>
      <stop offset=".73" stop-color="#c9322c"/>
      <stop offset="1" stop-color="#571619"/>
    </linearGradient>
    <linearGradient id="linear-gradient7" x1="254.06" y1="94.93" x2="254.41" y2="375.39" gradientUnits="userSpaceOnUse">
      <stop offset="0" stop-color="#f78f24"/>
      <stop offset=".04" stop-color="#ee7e24"/>
      <stop offset=".09" stop-color="#e46c26"/>
      <stop offset=".15" stop-color="#de6026"/>
      <stop offset=".21" stop-color="#dd5d27"/>
      <stop offset=".62" stop-color="#c1272f"/>
      <stop offset="1" stop-color="#4e1316"/>
    </linearGradient>
  </defs>
  <path class="st2" d="M206.33,341.99s.02-.06.02-.09c0-.04.02-.06.02-.11"/>
  <path class="st8" d="M186.95,387.14c-2.45.36-5.07.66-7.84.86-2.8.21-5.47.29-7.97.29h-9.83c-48.26,0-89.75-31.66-108.04-77.05,46.63,38.45,94.93,28.06,133.52-6.45,0-.02.02-.02.02-.02.04-.04.1-.09.14-.13,3.72-3.02,9.61-8.64,14.25-17.64,6.18-12,5.84-34.04,6.66-28.75,9.47,46.38,3.56,87.75-20.9,128.88Z"/>
  <path class="st1" d="M186.79,304.79c-38.59,34.51-86.89,44.9-133.52,6.45l-.02-.02c-6.4-15.89-9.96-33.47-9.96-51.96V80.44c-.56-10.04-2.82-27.21-12.3-45.17-5.1-9.66-10.88-16.94-15.76-22.11,9.36.47,18.7.94,28.06,1.4,146.75,35.47,44.56,236.8,100.71,286.54h.02c5.64,5.02,12.92,8.49,22.2,10.11,8.35-.64,15.1-2.87,20.57-6.43Z"/>
  <path class="st0" d="M348.06,14.57c-1.46,1-2.86,2.04-4.22,3.13-20.36,16.28-31.39,42.21-33.04,77.88h-21.29c.02-3.36.04-6.72.06-10.09v-.09c.62-9.57,1.79-17.43,2.8-23.11,1.23-6.68,1.93-10.51,3.79-15.57.97-2.64,3.68-9.49,9.15-16.87,5.6-7.55,11.7-12.36,16.13-15.28h26.62Z"/>
  <path class="st6" d="M485.06,14.56c0,22.36-8.29,42.62-21.7,57.28-13.41,14.66-31.93,23.72-52.39,23.72h-100.4c1.79-38.04,14.28-65.02,37.48-81h137Z"/>
  <path class="st4" d="M390.47,95.57v28.77c-69.18,3.43-79.88,66.85-79.88,153.69V95.57h79.88Z"/>
  <path class="st5" d="M390.47,124.33v170.58c-1.81,57.92-23.39,109.24-79.88,151.45-20.06,15-44.53,28.85-74.07,41.45,43.18-37.21,73.13-95.71,74.07-200.62.02-3.02.02-6.09,0-9.17,0-86.83,10.7-150.26,79.88-153.69Z"/>
  <path class="st7" d="M310.58,278.02c.02,3.09.02,6.15,0,9.17-.93,104.92-30.88,163.41-74.07,200.62-5.04-1.94-10.08-4.02-15.1-6.3-42.09-18.83-83.62-48.62-114.31-83.47,65.6,31.72,178.04,11.7,203.48-120.03Z"/>
  <path class="st2" d="M390.47,294.91v-16.89c.18,5.68.18,11.32,0,16.89Z"/>
  <path class="st2" d="M186.95,304.64s-.1.09-.14.13"/>
  <path class="st2" d="M43.29,254.13c2.91,8.9,7.95,19.75,16.91,29.27,31.07,33.01,79.91,18.9,83.8,17.71"/>
  <path class="st2" d="M288.51,339.81c-8.89,59.03-31.26,106.27-67.11,141.72"/>
  <path class="st3" d="M321.44,14.57c-4.44,2.91-10.53,7.72-16.13,15.28-5.47,7.38-8.17,14.23-9.15,16.87-1.87,5.06-2.57,8.89-3.79,15.57-1.01,5.68-2.18,13.53-2.8,23.11v.09c-.02,3.36-.04,6.72-.06,10.09v163.69c0,9.85-1.03,50.04-29.48,85.3-28.16,34.94-64.06,41.28-73.07,42.58,6.34-10.32,14.15-25.47,19.38-45.15,0-.02.02-.06.02-.09,0-.04.02-.06.02-.11.31-1.19.62-2.4.91-3.64,8.41-34.87,3.97-64.45.58-79.83,0,0,0-.02-.02-.06,5.59-56.96-14.98-146.45,17.51-200.8.14-.23.27-.45.41-.66,2.88-4.49,6.05-8.7,9.55-12.58,17.14-19,38.73-26.38,54.18-29.66h31.93Z"/>
  <path class="st2" d="M207.64,260.51"/>
</svg>